<?xml version="1.0" encoding="UTF-8"?>
<svg xmlns="http://www.w3.org/2000/svg" viewBox="0 0 659.88 1038.76">
  <defs>
    <style>
      .cls-1 {
        fill: #edc1b7;
      }

      .cls-2 {
        fill: #600f1c;
      }

      .cls-3 {
        fill: #aa6189;
      }

      .cls-4 {
        fill: #352a2a;
      }

      .cls-5 {
        fill: #eef8f0;
      }

      .cls-6 {
        fill: #e5b4aa;
      }

      .cls-7 {
        fill: #cb849c;
      }

      .cls-8 {
        fill: #ecad9c;
      }

      .cls-9 {
        fill: #701c2d;
      }

      .cls-10 {
        fill: #894c3f;
      }

      .cls-11 {
        fill: #f5d6cd;
      }

      .cls-12 {
        fill: #f0c1b4;
      }

      .cls-13 {
        fill: #bf7596;
      }

      .cls-14 {
        fill: #efc4bb;
      }

      .cls-15 {
        fill: #63182b;
      }

      .cls-16 {
        fill: #0f0e0e;
      }

      .cls-17 {
        fill: #962d3d;
      }

      .cls-18 {
        fill: #423737;
      }

      .cls-19 {
        fill: #cc8576;
      }

      .cls-20 {
        fill: #cf8876;
      }

      .cls-21 {
        fill: none;
      }

      .cls-22 {
        fill: #050505;
      }

      .cls-23 {
        fill: #a86a5d;
      }

      .cls-24 {
        fill: #e8c3ba;
      }

      .cls-25 {
        fill: #df9d8b;
      }

      .cls-26 {
        fill: #822028;
      }
    </style>
  </defs>
  <g id="Layer_3" data-name="Layer 3">
    <g>
      <polygon class="cls-22" points="0 566.45 329.94 278.58 329.94 1038.76 0 732.59 0 566.45"/>
      <polygon class="cls-22" points="659.88 566.45 329.94 278.58 329.94 1038.76 659.88 732.59 659.88 566.45"/>
    </g>
  </g>
  <g id="Layer_2" data-name="Layer 2">
    <path class="cls-23" d="M171.7,140l32.37-50.51,89.85-33.57,76.6,1.14,51.58,21.58,37.2,66.06,26.6,74.29-.75,78.96,4.86,79.96-18.02,49.48-88.94,22.86-122.25,6.9-64.88-41.73s-12.39-86.72-12.61-97.45"/>
    <path class="cls-23" d="M190.92,337.88c-.21-10.73-6.91-23.41-6.91-23.41l-4.34-130.97"/>
    <polygon class="cls-4" points="659.88 623.54 659.88 566.45 327.24 561.95 659.88 623.54"/>
    <polygon class="cls-4" points="0 623.54 327.24 561.95 0 566.45 0 623.54"/>
    <polygon class="cls-16" points="329.94 1038.76 327.24 561.95 0 623.54 0 732.59 329.94 1038.76"/>
    <polygon class="cls-18" points="0 566.45 659.88 566.45 329.94 278.58 0 566.45"/>
    <g>
      <polygon class="cls-21" points="331.37 653.37 326.87 86.37 277.37 68.37 236.87 86.37 179.67 156 169.37 212.37 169.37 293.37 155.87 356.37 155.87 446.37 142.37 536.37 254.87 644.37 331.37 653.37"/>
      <polygon class="cls-11" points="169.37 270.87 162.62 264.12 155.87 266.37 151.37 284.37 155.87 315.87 155.87 329.37 160.37 338.37 169.37 293.37 169.37 270.87"/>
      <polygon class="cls-21" points="223.37 270.87 245.87 266.37 268.37 266.37 290.87 275.37 272.87 284.37 245.87 284.37 223.37 270.87"/>
      <polygon class="cls-23" points="160.37 302.37 155.87 284.37 155.87 275.37 164.87 288.87 160.37 302.37"/>
      <polygon class="cls-20" points="155.87 315.87 160.37 302.37 164.87 311.37 160.37 338.37 155.87 329.37 155.87 315.87"/>
      <polygon class="cls-21" points="164.87 288.87 169.37 270.87 169.37 293.37 164.87 311.37 160.37 302.37 164.87 288.87"/>
      <polygon class="cls-10" points="155.87 275.37 155.87 266.37 164.87 288.87 155.87 275.37"/>
      <polygon class="cls-20" points="205.37 266.37 232.37 257.37 272.87 257.37 295.37 266.37 299.87 275.37 290.87 275.37 268.37 266.37 245.87 266.37 223.37 270.87 205.37 266.37"/>
      <polygon class="cls-21" points="290.87 275.37 272.87 257.37 295.37 266.37 299.87 275.37 290.87 275.37"/>
      <polygon class="cls-23" points="281.87 266.37 268.37 266.37 290.87 275.37 281.87 266.37"/>
      <polygon class="cls-21" points="245.87 266.37 232.37 257.37 205.37 266.37 223.37 270.87 245.87 266.37"/>
      <polygon class="cls-21" points="308.87 248.37 299.87 248.37 263.87 234.87 236.87 243.87 196.37 225.87 236.87 207.87 313.37 212.37 322.37 216.87 317.87 243.87 308.87 248.37"/>
      <polygon class="cls-23" points="308.87 248.37 322.37 216.87 317.87 243.87 308.87 248.37"/>
      <polygon class="cls-21" points="263.87 234.87 218.87 234.87 236.87 243.87 263.87 234.87"/>
      <polygon class="cls-26" points="263.87 234.87 227.87 212.37 196.37 225.87 218.87 234.87 263.87 234.87"/>
      <polygon class="cls-9" points="263.87 234.87 313.37 239.37 308.87 248.37 299.87 248.37 263.87 234.87"/>
      <polygon class="cls-26" points="296.3 211.36 263.87 234.87 313.37 239.37 296.3 211.36"/>
      <polygon class="cls-23" points="329.24 385.51 324.27 383.65 320.77 378.99 329.08 364.54 329.24 385.51"/>
      <polygon class="cls-23" points="320.77 378.99 316.58 373.17 326.59 368.87 320.77 378.99"/>
      <polygon class="cls-21" points="316.58 373.17 305.87 367.57 289.78 370.37 295.38 378.99 310.29 377.59 316.58 373.17"/>
      <polygon class="cls-10" points="310.29 377.59 305.87 367.57 316.58 373.17 310.29 377.59"/>
      <polygon class="cls-10" points="311.22 377.24 292.09 372.66 295.54 378.99 311.22 377.24"/>
      <polygon class="cls-21" points="281.86 354.76 257.12 386.91 276.5 336.35 281.86 354.76"/>
      <polygon class="cls-23" points="305.87 367.57 304.23 346.56 316.58 373.17 305.87 367.57"/>
      <polygon class="cls-21" points="304.23 346.56 328.54 296.27 329.08 364.54 326.59 368.87 316.58 373.17 304.23 346.56"/>
      <polygon class="cls-12" points="297.94 338.37 329.39 296.66 304.23 346.56 297.94 338.37"/>
      <polygon class="cls-21" points="276.5 336.35 299.87 275.37 281.86 354.76 276.5 336.35"/>
      <polygon class="cls-8" points="317.87 243.87 328.29 265.05 327.7 196.08 322.37 216.87 317.87 243.87"/>
      <path class="cls-8" d="M295.37,266.37s-7.52-14.37-9-15.07-22.5-16.43-22.5-16.43l9,22.5,22.5,9Z"/>
      <polygon class="cls-21" points="317.87 243.87 328 228.12 327.7 196.08 317.87 243.87"/>
      <polygon class="cls-25" points="299.87 275.37 297.94 338.37 281.86 354.76 299.87 275.37"/>
      <polygon class="cls-20" points="299.87 274.37 308.87 248.37 299.87 248.37 299.87 274.37"/>
      <polygon class="cls-23" points="286.37 251.3 299.87 248.37 299.87 274.37 286.37 251.3"/>
      <polygon class="cls-10" points="299.87 274.37 317.87 243.87 308.87 248.37 299.87 274.37"/>
      <polygon class="cls-12" points="328.29 265.05 299.87 275.37 317.87 243.87 328.29 265.05"/>
      <polygon class="cls-20" points="329.08 364.54 304.23 346.56 316.58 373.17 326.59 368.87 329.08 364.54"/>
      <polygon class="cls-23" points="313.37 212.37 326.87 86.37 327.7 196.08 322.37 216.87 313.37 212.37"/>
      <polygon class="cls-11" points="236.87 207.87 326.87 86.37 313.37 212.37 236.87 207.87"/>
      <polygon class="cls-11" points="236.87 207.87 236.87 86.37 277.37 68.37 236.87 207.87"/>
      <polygon class="cls-12" points="196.37 225.87 169.37 212.37 179.67 156 236.87 207.87 196.37 225.87"/>
      <polygon class="cls-11" points="236.87 243.87 232.37 257.37 272.87 257.37 263.87 234.87 236.87 243.87"/>
      <polygon class="cls-8" points="236.87 243.87 205.37 266.37 232.37 257.37 236.87 243.87"/>
      <polygon class="cls-11" points="205.37 266.37 169.37 268.31 169.37 239.37 205.37 266.37"/>
      <polygon class="cls-20" points="241.37 293.94 245.87 284.37 272.87 284.37 276.5 288.87 241.37 293.94"/>
      <polygon class="cls-23" points="272.87 284.37 290.87 275.37 299.87 275.37 294.7 288.87 276.5 288.87 272.87 284.37"/>
      <polygon class="cls-11" points="241.37 293.94 169.37 293.37 169.37 268.31 205.37 266.37 223.37 270.87 245.87 284.37 241.37 293.94"/>
      <polygon class="cls-1" points="241.37 293.94 257.12 386.91 164.87 311.37 169.37 293.37 241.37 293.94"/>
      <polygon class="cls-21" points="257.12 386.91 295.38 378.99 289.78 370.37 257.12 386.91"/>
      <polygon class="cls-20" points="164.87 311.37 176.07 375.03 216.97 427.11 265.9 398.8 313.24 385.51 329.24 385.51 324.27 383.65 316.58 373.17 310.29 377.59 295.38 378.99 257.12 386.91 164.87 311.37"/>
      <polygon class="cls-23" points="257.12 386.91 216.97 427.11 265.9 398.8 295.38 378.99 257.12 386.91"/>
      <polygon class="cls-25" points="176.07 375.03 257.12 386.91 216.97 427.11 176.07 375.03"/>
      <polygon class="cls-26" points="313.24 385.51 308.87 429.9 329.57 427.11 329.24 385.51 313.24 385.51"/>
      <polygon class="cls-17" points="308.87 429.9 288.62 444.23 295.38 390.52 313.24 385.51 308.87 429.9"/>
      <polygon class="cls-26" points="288.62 444.23 263.87 456.47 265.9 398.8 295.38 390.52 288.62 444.23"/>
      <polygon class="cls-21" points="263.87 456.47 230.12 475.69 245.87 410.38 265.9 398.8 263.87 456.47"/>
      <path class="cls-9" d="M230.12,475.69s-47.41,29.71-47.41,25.17,34.25-73.75,34.25-73.75l28.9-16.72-15.75,65.3Z"/>
      <polygon class="cls-26" points="216.97 427.11 151.05 478.51 142.37 536.37 182.72 500.85 216.97 427.11"/>
      <polygon class="cls-9" points="176.07 375.03 155.87 446.37 216.97 427.11 176.07 375.03"/>
      <polygon class="cls-17" points="230.12 475.69 265.9 398.8 263.87 456.47 230.12 475.69"/>
      <polygon class="cls-9" points="308.87 429.9 329.24 385.51 329.57 427.11 308.87 429.9"/>
      <polygon class="cls-26" points="263.87 456.47 260.66 481.74 279.62 505.4 308.87 490.02 313.24 470.45 263.87 456.47"/>
      <polygon class="cls-9" points="288.62 444.23 274.57 459.5 263.87 456.47 288.62 444.23"/>
      <polygon class="cls-13" points="288.62 444.23 329.77 451.86 329.94 472.89 313.24 470.45 288.62 444.23"/>
      <polygon class="cls-7" points="288.62 444.23 329.57 427.11 329.77 451.86 288.62 444.23"/>
      <polygon class="cls-9" points="260.66 481.74 313.24 470.45 308.87 490.02 279.62 505.4 260.66 481.74"/>
      <polygon class="cls-15" points="260.66 481.74 182.72 500.85 230.12 475.69 263.87 456.47 260.66 481.74"/>
      <polygon class="cls-15" points="260.66 481.74 190.3 582.38 142.37 536.37 182.72 500.85 260.66 481.74"/>
      <polygon class="cls-9" points="142.37 536.37 260.66 481.74 190.3 582.38 142.37 536.37"/>
      <polygon class="cls-9" points="279.62 505.4 254.87 644.37 190.3 582.38 260.66 481.74 279.62 505.4"/>
      <polygon class="cls-15" points="254.87 644.37 260.66 481.74 190.3 582.38 254.87 644.37"/>
      <polygon class="cls-9" points="308.87 490.02 330.36 526.37 330.07 490.02 308.87 490.02"/>
      <polygon class="cls-9" points="308.87 490.02 331.37 653.37 332.85 526.37 308.87 490.02"/>
      <polygon class="cls-15" points="308.87 490.02 254.87 644.37 331.37 653.37 308.87 490.02"/>
      <polygon class="cls-25" points="281.86 354.76 280.59 375.03 257.12 386.91 281.86 354.76"/>
      <polygon class="cls-21" points="179.67 156 221.12 61.4 236.87 86.37 179.67 156"/>
      <polygon class="cls-17" points="221.12 61.4 263.87 42.29 236.87 86.37 221.12 61.4"/>
      <polygon class="cls-21" points="263.87 42.29 281.87 22.25 277.37 68.37 236.87 86.37 263.87 42.29"/>
      <polygon class="cls-9" points="281.87 22.25 297.94 17.59 277.37 68.37 281.87 22.25"/>
      <polygon class="cls-17" points="297.94 17.59 308.87 22.25 290.87 35.04 297.94 17.59"/>
      <polygon class="cls-2" points="290.87 35.04 327.88 86.76 277.37 68.37 290.87 35.04"/>
      <polygon class="cls-21" points="290.87 35.04 297.94 75.85 277.37 68.37 290.87 35.04"/>
      <polygon class="cls-17" points="308.87 22.25 332.44 17.59 326.87 86.37 308.87 22.25"/>
      <polygon class="cls-9" points="169.37 268.31 162.56 199.81 169.37 212.37 169.37 268.31"/>
      <polygon class="cls-17" points="162.56 199.81 169.37 134.56 179.33 157.86 169.37 212.37 162.56 199.81"/>
      <polygon class="cls-17" points="169.37 134.56 221.12 61.4 179.67 156 169.37 134.56"/>
      <polygon class="cls-6" points="257.12 386.91 294.7 288.87 276.5 288.87 241.37 293.94 257.12 386.91"/>
      <polygon class="cls-11" points="297.94 338.37 299.87 275.37 329.17 265.44 329.39 296.66 297.94 338.37"/>
      <polygon class="cls-8" points="281.86 354.76 299.87 275.37 276.5 336.35 281.86 354.76"/>
      <polygon class="cls-25" points="257.12 386.91 281.86 354.76 276.5 336.35 257.12 386.91"/>
      <polygon class="cls-25" points="176.07 375.03 164.87 311.37 257.12 386.91 176.07 375.03"/>
      <polygon class="cls-11" points="304.23 346.56 329.39 296.66 329.88 364.94 304.23 346.56"/>
      <polygon class="cls-12" points="289.78 370.37 280.59 375.03 281.86 354.76 297.94 338.37 304.23 346.56 305.87 367.57 289.78 370.37"/>
      <polygon class="cls-23" points="295.38 378.99 257.12 386.91 289.78 370.37 295.38 378.99"/>
      <polygon class="cls-10" points="310.29 377.59 305.87 367.57 289.78 370.37 292.09 373.93 310.29 377.59"/>
      <polygon class="cls-10" points="299.87 275.37 295.37 266.37 272.87 257.37 290.87 275.37 299.87 275.37"/>
      <polygon class="cls-17" points="296.3 211.36 236.87 207.87 227.87 212.37 263.87 234.87 296.3 211.36"/>
      <polygon class="cls-2" points="297.94 248.34 286.37 251.3 263.87 234.87 297.94 248.34"/>
      <polygon class="cls-25" points="236.87 243.87 169.37 212.37 169.37 239.37 205.37 266.37 236.87 243.87"/>
      <polygon class="cls-10" points="236.87 243.87 263.87 234.87 218.87 234.87 236.87 243.87"/>
      <polygon class="cls-8" points="236.87 207.87 236.87 86.37 179.67 156 236.87 207.87"/>
      <polygon class="cls-24" points="277.37 68.37 236.87 207.87 326.87 86.37 277.37 68.37"/>
      <polygon class="cls-10" points="313.37 239.37 322.37 216.87 313.37 212.37 296.3 211.36 313.37 239.37"/>
      <polygon class="cls-17" points="155.87 446.37 176.07 375.03 164.87 311.37 155.87 356.37 155.87 446.37"/>
      <polygon class="cls-9" points="151.05 478.51 216.97 427.11 155.87 446.37 151.05 478.51"/>
      <polygon class="cls-26" points="230.12 475.69 245.87 410.38 265.9 398.8 230.12 475.69"/>
      <polygon class="cls-9" points="308.87 490.02 279.62 505.4 254.87 644.37 308.87 490.02"/>
      <polygon class="cls-15" points="329.57 427.11 308.87 429.9 288.62 444.23 329.57 427.11"/>
      <polygon class="cls-9" points="331.39 475.59 288.62 444.23 274.57 459.5 331.39 475.59"/>
      <polygon class="cls-5" points="223.37 270.87 245.87 266.37 268.37 266.37 290.87 275.37 272.87 284.37 245.87 284.37 223.37 270.87"/>
      <polygon class="cls-17" points="290.87 35.04 308.87 22.25 326.87 86.37 290.87 35.04"/>
      <polygon class="cls-26" points="236.87 86.37 263.87 42.29 281.87 22.25 277.37 68.37 236.87 86.37"/>
      <polygon class="cls-26" points="179.67 156 221.12 61.4 236.87 86.37 179.67 156"/>
      <polygon class="cls-21" points="330.24 653.34 326.44 86.33 375.67 67.61 416.43 85.01 474.65 153.8 485.77 210.01 486.95 291 501.37 353.8 502.69 443.79 517.5 533.58 406.6 643.22 330.24 653.34"/>
      <polygon class="cls-11" points="486.62 268.51 493.27 261.66 500.06 263.81 504.82 281.74 500.78 313.3 500.98 326.8 496.61 335.87 486.95 291 486.62 268.51"/>
      <polygon class="cls-21" points="432.63 269.3 410.07 265.13 387.57 265.46 365.2 274.78 383.33 283.52 410.33 283.12 432.63 269.3"/>
      <polygon class="cls-23" points="496.08 299.87 500.32 281.81 500.19 272.81 491.39 286.44 496.08 299.87"/>
      <polygon class="cls-20" points="500.78 313.3 496.08 299.87 491.72 308.94 496.61 335.87 500.98 326.8 500.78 313.3"/>
      <polygon class="cls-21" points="491.39 286.44 486.62 268.51 486.95 291 491.72 308.94 496.08 299.87 491.39 286.44"/>
      <polygon class="cls-10" points="500.19 272.81 500.06 263.81 491.39 286.44 500.19 272.81"/>
      <polygon class="cls-20" points="450.56 264.53 423.43 255.93 382.94 256.52 360.57 265.85 356.2 274.92 365.2 274.78 387.57 265.46 410.07 265.13 432.63 269.3 450.56 264.53"/>
      <polygon class="cls-21" points="365.2 274.78 382.94 256.52 360.57 265.85 356.2 274.92 365.2 274.78"/>
      <polygon class="cls-23" points="374.07 265.65 387.57 265.46 365.2 274.78 374.07 265.65"/>
      <polygon class="cls-21" points="410.07 265.13 423.43 255.93 450.56 264.53 432.63 269.3 410.07 265.13"/>
      <polygon class="cls-21" points="346.81 248.05 355.81 247.92 391.61 233.89 418.74 242.5 458.97 223.91 418.21 206.5 341.78 212.12 332.85 216.75 337.74 243.68 346.81 248.05"/>
      <polygon class="cls-23" points="346.81 248.05 332.85 216.75 337.74 243.68 346.81 248.05"/>
      <polygon class="cls-21" points="391.61 233.89 436.6 233.23 418.74 242.5 391.61 233.89"/>
      <polygon class="cls-26" points="391.61 233.89 427.27 210.87 458.97 223.91 436.6 233.23 391.61 233.89"/>
      <polygon class="cls-9" points="391.61 233.89 342.18 239.12 346.81 248.05 355.81 247.92 391.61 233.89"/>
      <polygon class="cls-26" points="358.84 210.87 391.61 233.89 342.18 239.12 358.84 210.87"/>
      <polygon class="cls-23" points="328.44 385.48 333.39 383.54 336.82 378.83 328.3 364.51 328.44 385.48"/>
      <polygon class="cls-23" points="336.82 378.83 340.93 372.95 330.85 368.8 336.82 378.83"/>
      <polygon class="cls-21" points="340.93 372.95 351.55 367.2 367.68 369.76 362.21 378.46 347.28 377.28 340.93 372.95"/>
      <polygon class="cls-10" points="347.28 377.28 351.55 367.2 340.93 372.95 347.28 377.28"/>
      <polygon class="cls-10" points="346.34 376.94 365.4 372.08 362.04 378.46 346.34 376.94"/>
      <polygon class="cls-21" points="375.37 354.03 400.58 385.82 380.46 335.55 375.37 354.03"/>
      <polygon class="cls-23" points="351.55 367.2 352.89 346.17 340.93 372.95 351.55 367.2"/>
      <polygon class="cls-21" points="352.89 346.17 327.85 296.23 328.3 364.51 330.85 368.8 340.93 372.95 352.89 346.17"/>
      <polygon class="cls-12" points="359.06 337.88 327 296.64 352.89 346.17 359.06 337.88"/>
      <polygon class="cls-21" points="380.46 335.55 356.2 274.92 375.37 354.03 380.46 335.55"/>
      <polygon class="cls-8" points="337.74 243.68 327.64 265.01 327.21 196.04 332.85 216.75 337.74 243.68"/>
      <path class="cls-8" d="M360.57,265.85s7.31-14.48,8.78-15.2,22.26-16.76,22.26-16.76l-8.67,22.63-22.37,9.33Z"/>
      <polyline class="cls-15" points="311.22 461.36 308.87 490.02 330.07 490.02"/>
      <polyline class="cls-26" points="330.07 490.02 329.88 466.13 311.22 461.36"/>
      <polygon class="cls-21" points="337.74 243.68 327.39 228.08 327.21 196.04 337.74 243.68"/>
      <polygon class="cls-25" points="356.2 274.92 359.06 337.88 375.37 354.03 356.2 274.92"/>
      <polygon class="cls-20" points="356.19 273.92 346.81 248.05 355.81 247.92 356.19 273.92"/>
      <polygon class="cls-23" points="369.35 250.65 355.81 247.92 356.19 273.92 369.35 250.65"/>
      <polygon class="cls-10" points="356.19 273.92 337.74 243.68 346.81 248.05 356.19 273.92"/>
      <polygon class="cls-12" points="327.64 265.01 356.2 274.92 337.74 243.68 327.64 265.01"/>
      <polygon class="cls-20" points="328.3 364.51 352.89 346.17 340.93 372.95 330.85 368.8 328.3 364.51"/>
      <polygon class="cls-23" points="341.78 212.12 326.44 86.33 327.21 196.04 332.85 216.75 341.78 212.12"/>
      <polygon class="cls-11" points="418.21 206.5 326.44 86.33 341.78 212.12 418.21 206.5"/>
      <polygon class="cls-11" points="418.21 206.5 416.43 85.01 375.67 67.61 418.21 206.5"/>
      <polygon class="cls-12" points="458.97 223.91 485.77 210.01 474.65 153.8 418.21 206.5 458.97 223.91"/>
      <polygon class="cls-11" points="418.74 242.5 423.43 255.93 382.94 256.52 391.61 233.89 418.74 242.5"/>
      <polygon class="cls-8" points="418.74 242.5 450.56 264.53 423.43 255.93 418.74 242.5"/>
      <polygon class="cls-11" points="450.56 264.53 486.59 265.95 486.16 237.01 450.56 264.53"/>
      <polygon class="cls-20" points="414.97 292.63 410.33 283.12 383.33 283.52 379.77 288.07 414.97 292.63"/>
      <polygon class="cls-23" points="383.33 283.52 365.2 274.78 356.2 274.92 361.57 288.34 379.77 288.07 383.33 283.52"/>
      <polygon class="cls-11" points="414.97 292.63 486.95 291 486.59 265.95 450.56 264.53 432.63 269.3 410.33 283.12 414.97 292.63"/>
      <polygon class="cls-1" points="414.97 292.63 400.58 385.82 491.72 308.94 486.95 291 414.97 292.63"/>
      <polygon class="cls-21" points="400.58 385.82 362.21 378.46 367.68 369.76 400.58 385.82"/>
      <polygon class="cls-20" points="491.72 308.94 481.44 372.75 441.32 425.42 391.98 397.83 344.45 385.24 328.44 385.48 333.39 383.54 340.93 372.95 347.28 377.28 362.21 378.46 400.58 385.82 491.72 308.94"/>
      <polygon class="cls-23" points="400.58 385.82 441.32 425.42 391.98 397.83 362.21 378.46 400.58 385.82"/>
      <polygon class="cls-25" points="481.44 372.75 400.58 385.82 441.32 425.42 481.44 372.75"/>
      <polygon class="cls-26" points="344.45 385.24 349.47 429.56 328.72 427.07 328.44 385.48 344.45 385.24"/>
      <polygon class="cls-17" points="349.47 429.56 369.92 443.6 362.38 389.99 344.45 385.24 349.47 429.56"/>
      <polygon class="cls-26" points="369.92 443.6 394.85 455.47 391.98 397.83 362.38 389.99 369.92 443.6"/>
      <polygon class="cls-21" points="394.85 455.47 428.88 474.19 412.17 409.13 391.98 397.83 394.85 455.47"/>
      <path class="cls-9" d="M428.88,474.19s47.83,29.01,47.77,24.47-35.33-73.24-35.33-73.24l-29.14-16.3,16.7,65.07Z"/>
      <polygon class="cls-26" points="441.32 425.42 507.98 475.85 517.5 533.58 476.64 498.66 441.32 425.42"/>
      <polygon class="cls-9" points="481.44 372.75 502.69 443.79 441.32 425.42 481.44 372.75"/>
      <polygon class="cls-17" points="428.88 474.19 391.98 397.83 394.85 455.47 428.88 474.19"/>
      <polygon class="cls-9" points="349.47 429.56 328.44 385.48 328.72 427.07 349.47 429.56"/>
      <polygon class="cls-26" points="394.85 455.47 398.43 480.69 379.81 504.62 350.34 489.67 341.92 466.09 394.85 455.47"/>
      <polygon class="cls-9" points="369.92 443.6 384.19 458.65 394.85 455.47 369.92 443.6"/>
      <polygon class="cls-13" points="369.92 443.6 327.77 451.86 327.24 473.15 345.69 470.17 369.92 443.6"/>
      <polygon class="cls-7" points="369.92 443.6 327.57 427.11 326.44 452.32 369.92 443.6"/>
      <polygon class="cls-9" points="398.43 480.69 345.69 470.17 350.34 489.67 379.81 504.62 398.43 480.69"/>
      <polygon class="cls-15" points="398.43 480.69 476.64 498.66 428.88 474.19 394.85 455.47 398.43 480.69"/>
      <polygon class="cls-15" points="398.43 480.69 470.25 580.29 517.5 533.58 476.64 498.66 398.43 480.69"/>
      <polygon class="cls-9" points="517.5 533.58 398.43 480.69 470.25 580.29 517.5 533.58"/>
      <polygon class="cls-26" points="379.81 504.62 406.6 643.22 470.25 580.29 398.43 480.69 379.81 504.62"/>
      <polygon class="cls-15" points="406.6 643.22 398.43 480.69 470.25 580.29 406.6 643.22"/>
      <polygon class="cls-26" points="350.34 489.67 328.07 528.63 328.08 491.19 350.34 489.67"/>
      <polygon class="cls-9" points="350.34 489.67 330.24 653.34 326.44 526.37 350.34 489.67"/>
      <polygon class="cls-15" points="350.34 489.67 406.6 643.22 330.24 653.34 350.34 489.67"/>
      <polygon class="cls-25" points="375.37 354.03 376.94 374.28 400.58 385.82 375.37 354.03"/>
      <polygon class="cls-21" points="472 159.03 431.81 59.82 416.43 85.01 472 159.03"/>
      <polygon class="cls-17" points="431.81 59.82 388.79 41.34 416.43 85.01 431.81 59.82"/>
      <polygon class="cls-21" points="388.79 41.34 370.5 21.56 375.67 67.61 416.43 85.01 388.79 41.34"/>
      <polygon class="cls-2" points="361.69 34.48 325.44 86.74 375.67 67.61 361.69 34.48"/>
      <polygon class="cls-21" points="361.69 34.48 355.22 75.39 375.67 67.61 361.69 34.48"/>
      <polygon class="cls-9" points="486.59 265.95 492.39 197.35 482.98 211.36 486.59 265.95"/>
      <polygon class="cls-17" points="492.39 197.35 484.63 132.22 472 159.03 482.98 211.36 492.39 197.35"/>
      <polygon class="cls-17" points="484.63 132.22 431.81 59.82 472 159.03 484.63 132.22"/>
      <polygon class="cls-6" points="400.58 385.82 361.57 288.34 379.77 288.07 414.97 292.63 400.58 385.82"/>
      <polygon class="cls-11" points="359.06 337.88 356.2 274.92 326.76 265.42 327 296.64 359.06 337.88"/>
      <polygon class="cls-8" points="375.37 354.03 356.2 274.92 380.46 335.55 375.37 354.03"/>
      <polygon class="cls-25" points="400.58 385.82 375.37 354.03 380.46 335.55 400.58 385.82"/>
      <polygon class="cls-25" points="481.44 372.75 491.72 308.94 400.58 385.82 481.44 372.75"/>
      <polygon class="cls-11" points="352.89 346.17 327 296.64 327.5 364.91 352.89 346.17"/>
      <polygon class="cls-12" points="367.68 369.76 376.94 374.28 375.37 354.03 359.06 337.88 352.89 346.17 351.55 367.2 367.68 369.76"/>
      <polygon class="cls-23" points="362.21 378.46 400.58 385.82 367.68 369.76 362.21 378.46"/>
      <polygon class="cls-10" points="347.28 377.28 351.55 367.2 367.68 369.76 365.42 373.35 347.28 377.28"/>
      <polygon class="cls-10" points="356.2 274.92 360.57 265.85 382.94 256.52 365.2 274.78 356.2 274.92"/>
      <polygon class="cls-17" points="358.84 210.87 418.21 206.5 427.27 210.87 391.61 233.89 358.84 210.87"/>
      <polygon class="cls-2" points="357.74 247.86 369.35 250.65 391.61 233.89 357.74 247.86"/>
      <polygon class="cls-25" points="418.74 242.5 482.98 211.36 483.7 238.91 450.56 264.53 418.74 242.5"/>
      <polygon class="cls-10" points="418.74 242.5 391.61 233.89 436.6 233.23 418.74 242.5"/>
      <polygon class="cls-8" points="418.21 206.5 416.43 85.01 472 159.03 418.21 206.5"/>
      <polygon class="cls-24" points="375.67 67.61 418.21 206.5 326.44 86.33 375.67 67.61"/>
      <polygon class="cls-10" points="342.18 239.12 332.85 216.75 341.78 212.12 358.84 210.87 342.18 239.12"/>
      <polygon class="cls-9" points="502.69 443.79 481.44 372.75 491.72 308.94 501.37 353.8 502.69 443.79"/>
      <polygon class="cls-17" points="507.98 475.85 441.32 425.42 502.69 443.79 507.98 475.85"/>
      <polygon class="cls-26" points="428.88 474.19 412.17 409.13 391.98 397.83 428.88 474.19"/>
      <polygon class="cls-9" points="350.34 489.67 379.81 504.62 406.6 643.22 350.34 489.67"/>
      <polygon class="cls-15" points="328.72 427.07 349.47 429.56 369.92 443.6 328.72 427.07"/>
      <polygon class="cls-9" points="334.75 471.85 369.92 443.6 384.19 458.65 334.75 471.85"/>
      <polygon class="cls-5" points="432.63 269.3 410.07 265.13 387.57 265.46 365.2 274.78 383.33 283.52 410.33 283.12 432.63 269.3"/>
      <polygon class="cls-15" points="328.08 491.19 326.44 465.76 349.47 461.36 350.34 489.67 328.08 491.19"/>
      <polygon class="cls-26" points="416.43 85.01 388.79 41.34 370.5 21.56 375.67 67.61 416.43 85.01"/>
      <polygon class="cls-26" points="472 159.03 431.81 59.82 416.43 85.01 472 159.03"/>
      <polygon class="cls-9" points="330.44 17.59 362.81 0 326.44 86.33 330.44 17.59"/>
      <polygon class="cls-9" points="362.81 0 362.81 34.48 326.44 86.33 362.81 0"/>
      <polygon class="cls-9" points="370.5 21.56 362.81 0 362.81 37.15 375.67 67.61 370.5 21.56"/>
      <polygon class="cls-9" points="370.5 21.56 431.81 59.82 388.79 41.34 370.5 21.56"/>
      <polygon class="cls-23" points="216.97 427.11 164.87 311.37 176.07 375.03 216.97 427.11"/>
      <polygon class="cls-23" points="441.32 425.42 481.44 372.75 491.72 308.94 441.32 425.42"/>
      <polygon class="cls-19" points="486.95 291 400.58 385.82 491.72 308.94 486.95 291"/>
      <polygon class="cls-19" points="257.12 386.91 169.37 293.37 164.87 311.37 257.12 386.91"/>
      <polygon class="cls-19" points="236.87 86.37 327.88 86.76 277.37 68.37 236.87 86.37"/>
      <polygon class="cls-19" points="326.87 86.37 375.67 67.61 416.43 85.01 326.87 86.37"/>
      <polygon class="cls-23" points="277.37 68.37 296.3 86.74 362.58 85.83 375.67 67.61 327.7 83.33 277.37 68.37"/>
      <polygon class="cls-19" points="236.87 86.37 259.79 176.93 236.87 207.87 236.87 86.37"/>
      <polygon class="cls-19" points="416.43 85.01 395.91 177.3 418.21 206.5 416.43 85.01"/>
      <polygon class="cls-23" points="289.78 370.37 281.86 354.76 280.59 375.03 289.78 370.37"/>
      <polygon class="cls-23" points="375.37 354.03 367.68 369.76 376.94 374.28 375.37 354.03"/>
    </g>
    <polygon class="cls-14" points="394.91 177.3 340.78 212.12 417.21 206.5 394.91 177.3"/>
    <polygon class="cls-14" points="312.37 212.37 258.79 176.93 235.87 207.87 312.37 212.37"/>
    <polygon class="cls-3" points="305.34 437.24 354.3 437.51 328.72 427.07 305.34 437.24"/>
  </g>
</svg>