<?xml version="1.0" encoding="UTF-8"?>
<svg xmlns="http://www.w3.org/2000/svg" viewBox="0 0 152.08 63.33">
  <defs>
    <style>
      .cls-1 {
        fill: #fff;
      }

      .cls-2 {
        fill: none;
        stroke: #fff;
        stroke-miterlimit: 10;
        stroke-width: 2px;
      }
    </style>
  </defs>
  <g id="Layer_1" data-name="Layer 1">
    <polyline class="cls-2" points="87.07 40.87 87.07 62.33 74.17 62.33 74.17 38.33 104.66 38.33 104.66 26.31 74.17 26.31 74.17 1.02 115.61 1.02 115.61 15.12 87.24 14.95 87.24 23.34"/>
    <path class="cls-2" d="M115.61,1.02V62.33h14.68V1.02c15.2,.25,19.92,8.39,20.62,14.11s0,18.12-17.65,18.99"/>
  </g>
  <g id="Layer_2" data-name="Layer 2">
    <path class="cls-1" d="M0,29.23H5.38C6.52,17.15,16.14,7.54,28.22,6.39V1.02C13.18,2.19,1.18,14.19,0,29.23ZM33.1,1.02V6.39c12.08,1.15,21.7,10.76,22.84,22.84h5.38c-1.18-15.04-13.18-27.04-28.22-28.21Zm22.84,33.1c-1.15,12.08-10.77,21.69-22.84,22.84v5.37c15.04-1.17,27.04-13.17,28.22-28.21h-5.38Zm-50.56,0H0c1.18,15.04,13.18,27.04,28.22,28.21v-5.37c-12.07-1.15-21.69-10.76-22.84-22.84Z"/>
  </g>
</svg>